<?xml version="1.0" standalone="no"?>
<!DOCTYPE svg PUBLIC "-//W3C//DTD SVG 20010904//EN"
 "http://www.w3.org/TR/2001/REC-SVG-20010904/DTD/svg10.dtd">
<svg version="1.0" xmlns="http://www.w3.org/2000/svg"
 width="512.000000pt" height="512.000000pt" viewBox="0 0 512.000000 512.000000"
 preserveAspectRatio="xMidYMid meet">

<g transform="translate(0.000000,512.000000) scale(0.100000,-0.100000)"
fill="#000000" stroke="none">
<path d="M2384 5110 c-950 -64 -1797 -665 -2172 -1540 -210 -489 -262 -1048
-146 -1570 214 -958 977 -1721 1934 -1934 361 -80 760 -80 1117 0 965 215
1722 972 1937 1937 80 357 80 757 0 1117 -150 673 -575 1264 -1170 1625 -352
215 -739 336 -1164 365 -158 11 -173 11 -336 0z m485 -436 c795 -117 1463
-675 1715 -1434 233 -699 99 -1443 -364 -2025 -140 -176 -366 -371 -571 -494
-361 -216 -827 -325 -1241 -292 -770 62 -1426 503 -1763 1186 -166 335 -245
733 -216 1092 56 713 437 1329 1044 1692 255 153 589 261 893 290 128 12 367
5 503 -15z"/>
<path d="M2360 4360 c-542 -67 -1012 -356 -1314 -810 -114 -170 -210 -401
-254 -610 -176 -822 233 -1650 994 -2015 489 -235 1075 -231 1569 11 367 179
678 496 847 864 389 845 79 1837 -723 2318 -175 105 -402 188 -619 227 -112
19 -393 28 -500 15z m244 -151 l26 -20 0 -178 c0 -205 -5 -221 -70 -221 -65 0
-70 16 -70 221 l0 178 26 20 c15 12 34 21 44 21 10 0 29 -9 44 -21z m-1017
-572 c111 -111 123 -126 123 -158 0 -35 -17 -60 -51 -71 -30 -11 -76 22 -186
134 -90 92 -113 121 -113 143 0 39 36 75 74 75 25 0 50 -20 153 -123z m2153
103 c12 -12 20 -33 20 -52 0 -26 -17 -49 -112 -146 -111 -112 -157 -145 -187
-134 -34 11 -51 36 -51 71 0 32 12 47 123 158 106 106 127 123 155 123 19 0
40 -8 52 -20z m-1133 -252 l23 -21 0 -353 0 -353 28 -15 c66 -35 112 -110 112
-186 0 -153 -164 -254 -300 -186 -25 12 -37 13 -54 4 -11 -6 -218 -125 -458
-265 -311 -180 -446 -253 -467 -253 -58 0 -89 59 -56 107 8 11 219 139 469
284 l454 263 -5 31 c-11 68 50 182 107 200 18 6 19 23 22 365 3 336 4 359 22
379 25 28 73 27 103 -1z m-1297 -878 c11 -11 20 -33 20 -50 0 -17 -9 -39 -20
-50 -19 -19 -33 -20 -199 -20 l-180 0 -20 26 c-12 15 -21 34 -21 44 0 10 9 29
21 44 l20 26 180 0 c166 0 180 -1 199 -20z m2899 -6 c12 -15 21 -34 21 -44 0
-10 -9 -29 -21 -44 l-20 -26 -178 0 c-205 0 -221 5 -221 70 0 65 16 70 221 70
l178 0 20 -26z m-2517 -911 c11 -10 18 -30 18 -52 0 -32 -12 -47 -123 -158
-101 -101 -128 -123 -152 -123 -39 0 -75 36 -75 74 0 25 20 50 123 153 109
109 127 123 157 123 18 0 42 -7 52 -17z m1945 -106 c101 -101 123 -128 123
-152 0 -39 -36 -75 -74 -75 -25 0 -50 20 -153 123 -109 109 -123 127 -123 157
0 45 24 70 69 70 32 0 47 -12 158 -123z m-1023 -279 c13 -18 16 -55 16 -199
l0 -178 -26 -20 c-34 -26 -54 -26 -88 0 l-26 20 0 178 c0 205 5 221 70 221 29
0 43 -6 54 -22z"/>
</g>
</svg>
